<svg xmlns="http://www.w3.org/2000/svg" width="190.898" height="249.079" viewBox="0 0 190.898 249.079">
  <defs>
    <style>
      .cls-1 {
        fill: #135c9c;
      }

      .cls-2 {
        fill: #104b7e;
      }

      .cls-3 {
        fill: #76c7ef;
        opacity: 0.964;
      }

      .cls-4 {
        fill: #f8b7bc;
      }

      .cls-5 {
        fill: #e5c7f8;
      }

      .cls-6 {
        fill: #b2faba;
      }
    </style>
  </defs>
  <g id="Group_15" data-name="Group 15" transform="translate(-621.163 -260.874)">
    <g id="Group_13" data-name="Group 13">
      <path id="Rectangle_81" data-name="Rectangle 81" class="cls-1" d="M37,0H149a28,28,0,0,1,28,28V74a0,0,0,0,1,0,0H37A37,37,0,0,1,0,37v0A37,37,0,0,1,37,0Z" transform="translate(730.455 509.953) rotate(-128)"/>
      <rect id="Rectangle_82" data-name="Rectangle 82" class="cls-2" width="4" height="70" transform="translate(669.224 428.377) rotate(-128)"/>
      <path id="Rectangle_80" data-name="Rectangle 80" class="cls-3" d="M37,0H177a0,0,0,0,1,0,0V46a28,28,0,0,1-28,28H37A37,37,0,0,1,0,37v0A37,37,0,0,1,37,0Z" transform="translate(806.2 319.187) rotate(142)"/>
    </g>
    <g id="Group_14" data-name="Group 14" transform="translate(-8 12)">
      <rect id="Rectangle_83" data-name="Rectangle 83" class="cls-4" width="26" height="25" transform="translate(785.699 341.455) rotate(51)"/>
      <rect id="Rectangle_84" data-name="Rectangle 84" class="cls-5" width="26" height="25" transform="translate(794.699 371.455) rotate(51)"/>
      <rect id="Rectangle_85" data-name="Rectangle 85" class="cls-6" width="26" height="25" transform="translate(803.699 401.455) rotate(51)"/>
    </g>
  </g>
</svg>
