<svg xmlns="http://www.w3.org/2000/svg" width="105" height="120" viewBox="0 0 105 120">
  <defs>
    <style>
      .cls-1 {
        fill: #6ec3ed;
      }
    </style>
  </defs>
  <path id="Exclusion_1" data-name="Exclusion 1" class="cls-1" d="M-1486.5,120c-28.948,0-52.5-7.69-52.5-17.142V78.75c4.574,3.15,10.826,5.727,18.581,7.658a132.024,132.024,0,0,0,24.336,3.461l-6.39-8.179a154.383,154.383,0,0,0,15.973.811,152.546,152.546,0,0,0,17.821-1.016l.031.04a13.311,13.311,0,0,1,2.807,7.333c13.823-1.786,24.834-5.281,31.842-10.107v24.107C-1434,112.31-1457.551,120-1486.5,120Zm-9.582-30.131,6.35,8.128a13.245,13.245,0,0,0,4.774,3.838,13.506,13.506,0,0,0,5.778,1.305,13.251,13.251,0,0,0,8.227-2.838,13.377,13.377,0,0,0,5.112-11.446,161.967,161.967,0,0,1-20.659,1.277C-1489.714,90.134-1492.938,90.045-1496.083,89.869Zm-6.39-8.179h0a117.829,117.829,0,0,1-14.64-2.413,67.236,67.236,0,0,1-11.563-3.723,25.953,25.953,0,0,1-7.592-4.738A7.7,7.7,0,0,1-1539,65.357V41.25c6.22,4.284,15.743,7.562,27.542,9.481l8.445-6.6A153.882,153.882,0,0,0-1486.5,45a143.835,143.835,0,0,0,26.288-2.307,13.387,13.387,0,0,1-4.082,5.317l-4.769,3.726a115.355,115.355,0,0,0,19.825-3.727A53.176,53.176,0,0,0-1434,41.25V65.357c0,3.588-3.374,7.026-9.758,9.944a63.668,63.668,0,0,1-10.973,3.7,113,113,0,0,1-13.948,2.486h0l-14.578-18.659,14.194-11.09a165.637,165.637,0,0,1-17.438.9,158.512,158.512,0,0,1-24.958-1.9l-1.463,1.143a10.058,10.058,0,0,0-3.815,6.744,10.057,10.057,0,0,0,2.071,7.467l12.19,15.6Zm-.539-37.558a116.446,116.446,0,0,1-14.441-2.435,66.182,66.182,0,0,1-11.391-3.716,25.574,25.574,0,0,1-7.472-4.709A7.665,7.665,0,0,1-1539,27.857V17.143C-1539,7.69-1515.449,0-1486.5,0s52.5,7.69,52.5,17.143V27.857a7.067,7.067,0,0,1-1.892,4.567,19.09,19.09,0,0,1-5.338,4.107c-4.594,2.547-11.158,4.678-18.982,6.161a13.4,13.4,0,0,0-1.776-13.462,13.242,13.242,0,0,0-4.774-3.838,13.5,13.5,0,0,0-5.778-1.305,13.247,13.247,0,0,0-8.228,2.837L-1499.73,41.74l-.084-.107-3.2,2.5Z" transform="translate(1539)"/>
</svg>
